<svg xmlns="http://www.w3.org/2000/svg" viewBox="0 0 210 297" width="210mm" height="297mm">
<rect x="0" y="0" width="210" height="297" fill="#ffffff"/>
<rect x="15" y="18" width="180" height="1.5" rx="0.75" fill="#1e293b"/>
<text x="15" y="27" font-family="Inter, sans-serif" font-size="10" font-weight="700" fill="#1e293b">Planejamento Semanal</text>
<text x="15" y="32" font-family="Inter, sans-serif" font-size="4" fill="#64748b">Produtividade</text>
<rect x="15" y="39" width="180" height="8" fill="white" stroke="#e2e8f0" stroke-width="0.3" rx="1.5"/>
<text x="18" y="43" font-family="Inter, sans-serif" font-size="3.5" font-weight="600" fill="#1a365d">📅 Planejamento Semanal</text>
<text x="18" y="55" font-family="Inter, sans-serif" font-size="3" font-weight="600" fill="#475569">Segunda</text>
<line x1="47" y1="55" x2="192" y2="55" stroke="#e2e8f0" stroke-width="0.3"/>
<text x="18" y="65" font-family="Inter, sans-serif" font-size="3" font-weight="600" fill="#475569">Terça</text>
<line x1="47" y1="65" x2="192" y2="65" stroke="#e2e8f0" stroke-width="0.3"/>
<text x="18" y="75" font-family="Inter, sans-serif" font-size="3" font-weight="600" fill="#475569">Quarta</text>
<line x1="47" y1="75" x2="192" y2="75" stroke="#e2e8f0" stroke-width="0.3"/>
<text x="18" y="85" font-family="Inter, sans-serif" font-size="3" font-weight="600" fill="#475569">Quinta</text>
<line x1="47" y1="85" x2="192" y2="85" stroke="#e2e8f0" stroke-width="0.3"/>
<text x="18" y="95" font-family="Inter, sans-serif" font-size="3" font-weight="600" fill="#475569">Sexta</text>
<line x1="47" y1="95" x2="192" y2="95" stroke="#e2e8f0" stroke-width="0.3"/>
<text x="18" y="105" font-family="Inter, sans-serif" font-size="3" font-weight="600" fill="#475569">Sábado</text>
<line x1="47" y1="105" x2="192" y2="105" stroke="#e2e8f0" stroke-width="0.3"/>
<text x="18" y="115" font-family="Inter, sans-serif" font-size="3" font-weight="600" fill="#475569">Domingo</text>
<line x1="47" y1="115" x2="192" y2="115" stroke="#e2e8f0" stroke-width="0.3"/>
<line x1="15" y1="274" x2="195" y2="274" stroke="#e2e8f0" stroke-width="0.3"/>
<text x="105" y="279" font-family="Inter, sans-serif" font-size="3.5" fill="#64748b" text-anchor="middle">Criado por Elizeu B. Abreu · www.elizeubarbosa.com.br · sofagospel.blogspot.com</text>
</svg>