<svg xmlns="http://www.w3.org/2000/svg" viewBox="0 0 210 297" width="210mm" height="297mm">
<rect x="0" y="0" width="210" height="297" fill="#ffffff"/>
<rect x="15" y="18" width="180" height="1.5" rx="0.75" fill="#881337"/>
<text x="15" y="27" font-family="Inter, sans-serif" font-size="10" font-weight="700" fill="#881337">Habit Tracker</text>
<text x="15" y="32" font-family="Inter, sans-serif" font-size="4" fill="#64748b">Bullet Journal</text>
<rect x="15" y="39" width="180" height="8" fill="white" stroke="#e2e8f0" stroke-width="0.3" rx="1.5"/>
<text x="18" y="43" font-family="Inter, sans-serif" font-size="3.5" font-weight="600" fill="#1a365d">📊 Habit Tracker</text>
<text x="18" y="54" font-family="Inter, sans-serif" font-size="2.5" font-weight="500" fill="#1e293b">Meditar</text>
<rect x="45" y="51" width="3.5" height="3.5" fill="none" stroke="#e2e8f0" stroke-width="0.3" rx="0.5"/>
<rect x="49.5" y="51" width="3.5" height="3.5" fill="none" stroke="#e2e8f0" stroke-width="0.3" rx="0.5"/>
<rect x="54" y="51" width="3.5" height="3.5" fill="none" stroke="#e2e8f0" stroke-width="0.3" rx="0.5"/>
<rect x="58.5" y="51" width="3.5" height="3.5" fill="none" stroke="#e2e8f0" stroke-width="0.3" rx="0.5"/>
<rect x="63" y="51" width="3.5" height="3.5" fill="none" stroke="#e2e8f0" stroke-width="0.3" rx="0.5"/>
<rect x="67.5" y="51" width="3.5" height="3.5" fill="none" stroke="#e2e8f0" stroke-width="0.3" rx="0.5"/>
<rect x="72" y="51" width="3.5" height="3.5" fill="none" stroke="#e2e8f0" stroke-width="0.3" rx="0.5"/>
<rect x="76.5" y="51" width="3.5" height="3.5" fill="none" stroke="#e2e8f0" stroke-width="0.3" rx="0.5"/>
<rect x="81" y="51" width="3.5" height="3.5" fill="none" stroke="#e2e8f0" stroke-width="0.3" rx="0.5"/>
<rect x="85.5" y="51" width="3.5" height="3.5" fill="none" stroke="#e2e8f0" stroke-width="0.3" rx="0.5"/>
<rect x="90" y="51" width="3.5" height="3.5" fill="none" stroke="#e2e8f0" stroke-width="0.3" rx="0.5"/>
<rect x="94.5" y="51" width="3.5" height="3.5" fill="none" stroke="#e2e8f0" stroke-width="0.3" rx="0.5"/>
<rect x="99" y="51" width="3.5" height="3.5" fill="none" stroke="#e2e8f0" stroke-width="0.3" rx="0.5"/>
<rect x="103.5" y="51" width="3.5" height="3.5" fill="none" stroke="#e2e8f0" stroke-width="0.3" rx="0.5"/>
<rect x="108" y="51" width="3.5" height="3.5" fill="none" stroke="#e2e8f0" stroke-width="0.3" rx="0.5"/>
<rect x="112.5" y="51" width="3.5" height="3.5" fill="none" stroke="#e2e8f0" stroke-width="0.3" rx="0.5"/>
<rect x="117" y="51" width="3.5" height="3.5" fill="none" stroke="#e2e8f0" stroke-width="0.3" rx="0.5"/>
<rect x="121.5" y="51" width="3.5" height="3.5" fill="none" stroke="#e2e8f0" stroke-width="0.3" rx="0.5"/>
<rect x="126" y="51" width="3.5" height="3.5" fill="none" stroke="#e2e8f0" stroke-width="0.3" rx="0.5"/>
<rect x="130.5" y="51" width="3.5" height="3.5" fill="none" stroke="#e2e8f0" stroke-width="0.3" rx="0.5"/>
<rect x="135" y="51" width="3.5" height="3.5" fill="none" stroke="#e2e8f0" stroke-width="0.3" rx="0.5"/>
<rect x="139.5" y="51" width="3.5" height="3.5" fill="none" stroke="#e2e8f0" stroke-width="0.3" rx="0.5"/>
<rect x="144" y="51" width="3.5" height="3.5" fill="none" stroke="#e2e8f0" stroke-width="0.3" rx="0.5"/>
<rect x="148.5" y="51" width="3.5" height="3.5" fill="none" stroke="#e2e8f0" stroke-width="0.3" rx="0.5"/>
<rect x="153" y="51" width="3.5" height="3.5" fill="none" stroke="#e2e8f0" stroke-width="0.3" rx="0.5"/>
<rect x="157.5" y="51" width="3.5" height="3.5" fill="none" stroke="#e2e8f0" stroke-width="0.3" rx="0.5"/>
<rect x="162" y="51" width="3.5" height="3.5" fill="none" stroke="#e2e8f0" stroke-width="0.3" rx="0.5"/>
<rect x="166.5" y="51" width="3.5" height="3.5" fill="none" stroke="#e2e8f0" stroke-width="0.3" rx="0.5"/>
<rect x="171" y="51" width="3.5" height="3.5" fill="none" stroke="#e2e8f0" stroke-width="0.3" rx="0.5"/>
<rect x="175.5" y="51" width="3.5" height="3.5" fill="none" stroke="#e2e8f0" stroke-width="0.3" rx="0.5"/>
<rect x="180" y="51" width="3.5" height="3.5" fill="none" stroke="#e2e8f0" stroke-width="0.3" rx="0.5"/>
<text x="18" y="61" font-family="Inter, sans-serif" font-size="2.5" font-weight="500" fill="#1e293b">Ler</text>
<rect x="45" y="58" width="3.5" height="3.5" fill="none" stroke="#e2e8f0" stroke-width="0.3" rx="0.5"/>
<rect x="49.5" y="58" width="3.5" height="3.5" fill="none" stroke="#e2e8f0" stroke-width="0.3" rx="0.5"/>
<rect x="54" y="58" width="3.5" height="3.5" fill="none" stroke="#e2e8f0" stroke-width="0.3" rx="0.5"/>
<rect x="58.5" y="58" width="3.5" height="3.5" fill="none" stroke="#e2e8f0" stroke-width="0.3" rx="0.5"/>
<rect x="63" y="58" width="3.5" height="3.5" fill="none" stroke="#e2e8f0" stroke-width="0.3" rx="0.5"/>
<rect x="67.5" y="58" width="3.5" height="3.5" fill="none" stroke="#e2e8f0" stroke-width="0.3" rx="0.5"/>
<rect x="72" y="58" width="3.5" height="3.5" fill="none" stroke="#e2e8f0" stroke-width="0.3" rx="0.5"/>
<rect x="76.5" y="58" width="3.5" height="3.5" fill="none" stroke="#e2e8f0" stroke-width="0.3" rx="0.5"/>
<rect x="81" y="58" width="3.5" height="3.5" fill="none" stroke="#e2e8f0" stroke-width="0.3" rx="0.5"/>
<rect x="85.5" y="58" width="3.5" height="3.5" fill="none" stroke="#e2e8f0" stroke-width="0.3" rx="0.5"/>
<rect x="90" y="58" width="3.5" height="3.5" fill="none" stroke="#e2e8f0" stroke-width="0.3" rx="0.5"/>
<rect x="94.5" y="58" width="3.5" height="3.5" fill="none" stroke="#e2e8f0" stroke-width="0.3" rx="0.5"/>
<rect x="99" y="58" width="3.5" height="3.5" fill="none" stroke="#e2e8f0" stroke-width="0.3" rx="0.5"/>
<rect x="103.5" y="58" width="3.5" height="3.5" fill="none" stroke="#e2e8f0" stroke-width="0.3" rx="0.5"/>
<rect x="108" y="58" width="3.5" height="3.5" fill="none" stroke="#e2e8f0" stroke-width="0.3" rx="0.5"/>
<rect x="112.5" y="58" width="3.5" height="3.5" fill="none" stroke="#e2e8f0" stroke-width="0.3" rx="0.5"/>
<rect x="117" y="58" width="3.5" height="3.5" fill="none" stroke="#e2e8f0" stroke-width="0.3" rx="0.5"/>
<rect x="121.5" y="58" width="3.5" height="3.5" fill="none" stroke="#e2e8f0" stroke-width="0.3" rx="0.5"/>
<rect x="126" y="58" width="3.5" height="3.5" fill="none" stroke="#e2e8f0" stroke-width="0.3" rx="0.5"/>
<rect x="130.5" y="58" width="3.5" height="3.5" fill="none" stroke="#e2e8f0" stroke-width="0.3" rx="0.5"/>
<rect x="135" y="58" width="3.5" height="3.5" fill="none" stroke="#e2e8f0" stroke-width="0.3" rx="0.5"/>
<rect x="139.5" y="58" width="3.5" height="3.5" fill="none" stroke="#e2e8f0" stroke-width="0.3" rx="0.5"/>
<rect x="144" y="58" width="3.5" height="3.5" fill="none" stroke="#e2e8f0" stroke-width="0.3" rx="0.5"/>
<rect x="148.5" y="58" width="3.5" height="3.5" fill="none" stroke="#e2e8f0" stroke-width="0.3" rx="0.5"/>
<rect x="153" y="58" width="3.5" height="3.5" fill="none" stroke="#e2e8f0" stroke-width="0.3" rx="0.5"/>
<rect x="157.5" y="58" width="3.5" height="3.5" fill="none" stroke="#e2e8f0" stroke-width="0.3" rx="0.5"/>
<rect x="162" y="58" width="3.5" height="3.5" fill="none" stroke="#e2e8f0" stroke-width="0.3" rx="0.5"/>
<rect x="166.5" y="58" width="3.5" height="3.5" fill="none" stroke="#e2e8f0" stroke-width="0.3" rx="0.5"/>
<rect x="171" y="58" width="3.5" height="3.5" fill="none" stroke="#e2e8f0" stroke-width="0.3" rx="0.5"/>
<rect x="175.5" y="58" width="3.5" height="3.5" fill="none" stroke="#e2e8f0" stroke-width="0.3" rx="0.5"/>
<rect x="180" y="58" width="3.5" height="3.5" fill="none" stroke="#e2e8f0" stroke-width="0.3" rx="0.5"/>
<text x="18" y="68" font-family="Inter, sans-serif" font-size="2.5" font-weight="500" fill="#1e293b">Exercitar</text>
<rect x="45" y="65" width="3.5" height="3.5" fill="none" stroke="#e2e8f0" stroke-width="0.3" rx="0.5"/>
<rect x="49.5" y="65" width="3.5" height="3.5" fill="none" stroke="#e2e8f0" stroke-width="0.3" rx="0.5"/>
<rect x="54" y="65" width="3.5" height="3.5" fill="none" stroke="#e2e8f0" stroke-width="0.3" rx="0.5"/>
<rect x="58.5" y="65" width="3.5" height="3.5" fill="none" stroke="#e2e8f0" stroke-width="0.3" rx="0.5"/>
<rect x="63" y="65" width="3.5" height="3.5" fill="none" stroke="#e2e8f0" stroke-width="0.3" rx="0.5"/>
<rect x="67.5" y="65" width="3.5" height="3.5" fill="none" stroke="#e2e8f0" stroke-width="0.3" rx="0.5"/>
<rect x="72" y="65" width="3.5" height="3.5" fill="none" stroke="#e2e8f0" stroke-width="0.3" rx="0.5"/>
<rect x="76.5" y="65" width="3.5" height="3.5" fill="none" stroke="#e2e8f0" stroke-width="0.3" rx="0.5"/>
<rect x="81" y="65" width="3.5" height="3.5" fill="none" stroke="#e2e8f0" stroke-width="0.3" rx="0.5"/>
<rect x="85.5" y="65" width="3.5" height="3.5" fill="none" stroke="#e2e8f0" stroke-width="0.3" rx="0.5"/>
<rect x="90" y="65" width="3.5" height="3.5" fill="none" stroke="#e2e8f0" stroke-width="0.3" rx="0.5"/>
<rect x="94.5" y="65" width="3.5" height="3.5" fill="none" stroke="#e2e8f0" stroke-width="0.3" rx="0.5"/>
<rect x="99" y="65" width="3.5" height="3.5" fill="none" stroke="#e2e8f0" stroke-width="0.3" rx="0.5"/>
<rect x="103.5" y="65" width="3.5" height="3.5" fill="none" stroke="#e2e8f0" stroke-width="0.3" rx="0.5"/>
<rect x="108" y="65" width="3.5" height="3.5" fill="none" stroke="#e2e8f0" stroke-width="0.3" rx="0.5"/>
<rect x="112.5" y="65" width="3.5" height="3.5" fill="none" stroke="#e2e8f0" stroke-width="0.3" rx="0.5"/>
<rect x="117" y="65" width="3.5" height="3.5" fill="none" stroke="#e2e8f0" stroke-width="0.3" rx="0.5"/>
<rect x="121.5" y="65" width="3.5" height="3.5" fill="none" stroke="#e2e8f0" stroke-width="0.3" rx="0.5"/>
<rect x="126" y="65" width="3.5" height="3.5" fill="none" stroke="#e2e8f0" stroke-width="0.3" rx="0.5"/>
<rect x="130.5" y="65" width="3.5" height="3.5" fill="none" stroke="#e2e8f0" stroke-width="0.3" rx="0.5"/>
<rect x="135" y="65" width="3.5" height="3.5" fill="none" stroke="#e2e8f0" stroke-width="0.3" rx="0.5"/>
<rect x="139.5" y="65" width="3.5" height="3.5" fill="none" stroke="#e2e8f0" stroke-width="0.3" rx="0.5"/>
<rect x="144" y="65" width="3.5" height="3.5" fill="none" stroke="#e2e8f0" stroke-width="0.3" rx="0.5"/>
<rect x="148.5" y="65" width="3.5" height="3.5" fill="none" stroke="#e2e8f0" stroke-width="0.3" rx="0.5"/>
<rect x="153" y="65" width="3.5" height="3.5" fill="none" stroke="#e2e8f0" stroke-width="0.3" rx="0.5"/>
<rect x="157.5" y="65" width="3.5" height="3.5" fill="none" stroke="#e2e8f0" stroke-width="0.3" rx="0.5"/>
<rect x="162" y="65" width="3.5" height="3.5" fill="none" stroke="#e2e8f0" stroke-width="0.3" rx="0.5"/>
<rect x="166.5" y="65" width="3.5" height="3.5" fill="none" stroke="#e2e8f0" stroke-width="0.3" rx="0.5"/>
<rect x="171" y="65" width="3.5" height="3.5" fill="none" stroke="#e2e8f0" stroke-width="0.3" rx="0.5"/>
<rect x="175.5" y="65" width="3.5" height="3.5" fill="none" stroke="#e2e8f0" stroke-width="0.3" rx="0.5"/>
<rect x="180" y="65" width="3.5" height="3.5" fill="none" stroke="#e2e8f0" stroke-width="0.3" rx="0.5"/>
<text x="18" y="75" font-family="Inter, sans-serif" font-size="2.5" font-weight="500" fill="#1e293b">Água</text>
<rect x="45" y="72" width="3.5" height="3.5" fill="none" stroke="#e2e8f0" stroke-width="0.3" rx="0.5"/>
<rect x="49.5" y="72" width="3.5" height="3.5" fill="none" stroke="#e2e8f0" stroke-width="0.3" rx="0.5"/>
<rect x="54" y="72" width="3.5" height="3.5" fill="none" stroke="#e2e8f0" stroke-width="0.3" rx="0.5"/>
<rect x="58.5" y="72" width="3.5" height="3.5" fill="none" stroke="#e2e8f0" stroke-width="0.3" rx="0.5"/>
<rect x="63" y="72" width="3.5" height="3.5" fill="none" stroke="#e2e8f0" stroke-width="0.3" rx="0.5"/>
<rect x="67.5" y="72" width="3.5" height="3.5" fill="none" stroke="#e2e8f0" stroke-width="0.3" rx="0.5"/>
<rect x="72" y="72" width="3.5" height="3.5" fill="none" stroke="#e2e8f0" stroke-width="0.3" rx="0.5"/>
<rect x="76.5" y="72" width="3.5" height="3.5" fill="none" stroke="#e2e8f0" stroke-width="0.3" rx="0.5"/>
<rect x="81" y="72" width="3.5" height="3.5" fill="none" stroke="#e2e8f0" stroke-width="0.3" rx="0.5"/>
<rect x="85.5" y="72" width="3.5" height="3.5" fill="none" stroke="#e2e8f0" stroke-width="0.3" rx="0.5"/>
<rect x="90" y="72" width="3.5" height="3.5" fill="none" stroke="#e2e8f0" stroke-width="0.3" rx="0.5"/>
<rect x="94.5" y="72" width="3.5" height="3.5" fill="none" stroke="#e2e8f0" stroke-width="0.3" rx="0.5"/>
<rect x="99" y="72" width="3.5" height="3.5" fill="none" stroke="#e2e8f0" stroke-width="0.3" rx="0.5"/>
<rect x="103.5" y="72" width="3.5" height="3.5" fill="none" stroke="#e2e8f0" stroke-width="0.3" rx="0.5"/>
<rect x="108" y="72" width="3.5" height="3.5" fill="none" stroke="#e2e8f0" stroke-width="0.3" rx="0.5"/>
<rect x="112.5" y="72" width="3.5" height="3.5" fill="none" stroke="#e2e8f0" stroke-width="0.3" rx="0.5"/>
<rect x="117" y="72" width="3.5" height="3.5" fill="none" stroke="#e2e8f0" stroke-width="0.3" rx="0.5"/>
<rect x="121.5" y="72" width="3.5" height="3.5" fill="none" stroke="#e2e8f0" stroke-width="0.3" rx="0.5"/>
<rect x="126" y="72" width="3.5" height="3.5" fill="none" stroke="#e2e8f0" stroke-width="0.3" rx="0.5"/>
<rect x="130.5" y="72" width="3.5" height="3.5" fill="none" stroke="#e2e8f0" stroke-width="0.3" rx="0.5"/>
<rect x="135" y="72" width="3.5" height="3.5" fill="none" stroke="#e2e8f0" stroke-width="0.3" rx="0.5"/>
<rect x="139.5" y="72" width="3.5" height="3.5" fill="none" stroke="#e2e8f0" stroke-width="0.3" rx="0.5"/>
<rect x="144" y="72" width="3.5" height="3.5" fill="none" stroke="#e2e8f0" stroke-width="0.3" rx="0.5"/>
<rect x="148.5" y="72" width="3.5" height="3.5" fill="none" stroke="#e2e8f0" stroke-width="0.3" rx="0.5"/>
<rect x="153" y="72" width="3.5" height="3.5" fill="none" stroke="#e2e8f0" stroke-width="0.3" rx="0.5"/>
<rect x="157.5" y="72" width="3.5" height="3.5" fill="none" stroke="#e2e8f0" stroke-width="0.3" rx="0.5"/>
<rect x="162" y="72" width="3.5" height="3.5" fill="none" stroke="#e2e8f0" stroke-width="0.3" rx="0.5"/>
<rect x="166.5" y="72" width="3.5" height="3.5" fill="none" stroke="#e2e8f0" stroke-width="0.3" rx="0.5"/>
<rect x="171" y="72" width="3.5" height="3.5" fill="none" stroke="#e2e8f0" stroke-width="0.3" rx="0.5"/>
<rect x="175.5" y="72" width="3.5" height="3.5" fill="none" stroke="#e2e8f0" stroke-width="0.3" rx="0.5"/>
<rect x="180" y="72" width="3.5" height="3.5" fill="none" stroke="#e2e8f0" stroke-width="0.3" rx="0.5"/>
<text x="18" y="82" font-family="Inter, sans-serif" font-size="2.5" font-weight="500" fill="#1e293b">Estudar</text>
<rect x="45" y="79" width="3.5" height="3.5" fill="none" stroke="#e2e8f0" stroke-width="0.3" rx="0.5"/>
<rect x="49.5" y="79" width="3.5" height="3.5" fill="none" stroke="#e2e8f0" stroke-width="0.3" rx="0.5"/>
<rect x="54" y="79" width="3.5" height="3.5" fill="none" stroke="#e2e8f0" stroke-width="0.3" rx="0.5"/>
<rect x="58.5" y="79" width="3.5" height="3.5" fill="none" stroke="#e2e8f0" stroke-width="0.3" rx="0.5"/>
<rect x="63" y="79" width="3.5" height="3.5" fill="none" stroke="#e2e8f0" stroke-width="0.3" rx="0.5"/>
<rect x="67.5" y="79" width="3.5" height="3.5" fill="none" stroke="#e2e8f0" stroke-width="0.3" rx="0.5"/>
<rect x="72" y="79" width="3.5" height="3.5" fill="none" stroke="#e2e8f0" stroke-width="0.3" rx="0.5"/>
<rect x="76.5" y="79" width="3.5" height="3.5" fill="none" stroke="#e2e8f0" stroke-width="0.3" rx="0.5"/>
<rect x="81" y="79" width="3.5" height="3.5" fill="none" stroke="#e2e8f0" stroke-width="0.3" rx="0.5"/>
<rect x="85.5" y="79" width="3.5" height="3.5" fill="none" stroke="#e2e8f0" stroke-width="0.3" rx="0.5"/>
<rect x="90" y="79" width="3.5" height="3.5" fill="none" stroke="#e2e8f0" stroke-width="0.3" rx="0.5"/>
<rect x="94.5" y="79" width="3.5" height="3.5" fill="none" stroke="#e2e8f0" stroke-width="0.3" rx="0.5"/>
<rect x="99" y="79" width="3.5" height="3.5" fill="none" stroke="#e2e8f0" stroke-width="0.3" rx="0.5"/>
<rect x="103.5" y="79" width="3.5" height="3.5" fill="none" stroke="#e2e8f0" stroke-width="0.3" rx="0.5"/>
<rect x="108" y="79" width="3.5" height="3.5" fill="none" stroke="#e2e8f0" stroke-width="0.3" rx="0.5"/>
<rect x="112.5" y="79" width="3.5" height="3.5" fill="none" stroke="#e2e8f0" stroke-width="0.3" rx="0.5"/>
<rect x="117" y="79" width="3.5" height="3.5" fill="none" stroke="#e2e8f0" stroke-width="0.3" rx="0.5"/>
<rect x="121.5" y="79" width="3.5" height="3.5" fill="none" stroke="#e2e8f0" stroke-width="0.3" rx="0.5"/>
<rect x="126" y="79" width="3.5" height="3.5" fill="none" stroke="#e2e8f0" stroke-width="0.3" rx="0.5"/>
<rect x="130.5" y="79" width="3.5" height="3.5" fill="none" stroke="#e2e8f0" stroke-width="0.3" rx="0.5"/>
<rect x="135" y="79" width="3.5" height="3.5" fill="none" stroke="#e2e8f0" stroke-width="0.3" rx="0.5"/>
<rect x="139.5" y="79" width="3.5" height="3.5" fill="none" stroke="#e2e8f0" stroke-width="0.3" rx="0.5"/>
<rect x="144" y="79" width="3.5" height="3.5" fill="none" stroke="#e2e8f0" stroke-width="0.3" rx="0.5"/>
<rect x="148.5" y="79" width="3.5" height="3.5" fill="none" stroke="#e2e8f0" stroke-width="0.3" rx="0.5"/>
<rect x="153" y="79" width="3.5" height="3.5" fill="none" stroke="#e2e8f0" stroke-width="0.3" rx="0.5"/>
<rect x="157.5" y="79" width="3.5" height="3.5" fill="none" stroke="#e2e8f0" stroke-width="0.3" rx="0.5"/>
<rect x="162" y="79" width="3.5" height="3.5" fill="none" stroke="#e2e8f0" stroke-width="0.3" rx="0.5"/>
<rect x="166.5" y="79" width="3.5" height="3.5" fill="none" stroke="#e2e8f0" stroke-width="0.3" rx="0.5"/>
<rect x="171" y="79" width="3.5" height="3.5" fill="none" stroke="#e2e8f0" stroke-width="0.3" rx="0.5"/>
<rect x="175.5" y="79" width="3.5" height="3.5" fill="none" stroke="#e2e8f0" stroke-width="0.3" rx="0.5"/>
<rect x="180" y="79" width="3.5" height="3.5" fill="none" stroke="#e2e8f0" stroke-width="0.3" rx="0.5"/>
<text x="18" y="89" font-family="Inter, sans-serif" font-size="2.5" font-weight="500" fill="#1e293b">Dormir</text>
<rect x="45" y="86" width="3.5" height="3.5" fill="none" stroke="#e2e8f0" stroke-width="0.3" rx="0.5"/>
<rect x="49.5" y="86" width="3.5" height="3.5" fill="none" stroke="#e2e8f0" stroke-width="0.3" rx="0.5"/>
<rect x="54" y="86" width="3.5" height="3.5" fill="none" stroke="#e2e8f0" stroke-width="0.3" rx="0.5"/>
<rect x="58.5" y="86" width="3.5" height="3.5" fill="none" stroke="#e2e8f0" stroke-width="0.3" rx="0.5"/>
<rect x="63" y="86" width="3.5" height="3.5" fill="none" stroke="#e2e8f0" stroke-width="0.3" rx="0.5"/>
<rect x="67.5" y="86" width="3.5" height="3.5" fill="none" stroke="#e2e8f0" stroke-width="0.3" rx="0.5"/>
<rect x="72" y="86" width="3.5" height="3.5" fill="none" stroke="#e2e8f0" stroke-width="0.3" rx="0.5"/>
<rect x="76.5" y="86" width="3.5" height="3.5" fill="none" stroke="#e2e8f0" stroke-width="0.3" rx="0.5"/>
<rect x="81" y="86" width="3.5" height="3.5" fill="none" stroke="#e2e8f0" stroke-width="0.3" rx="0.5"/>
<rect x="85.5" y="86" width="3.5" height="3.5" fill="none" stroke="#e2e8f0" stroke-width="0.3" rx="0.5"/>
<rect x="90" y="86" width="3.5" height="3.5" fill="none" stroke="#e2e8f0" stroke-width="0.3" rx="0.5"/>
<rect x="94.5" y="86" width="3.5" height="3.5" fill="none" stroke="#e2e8f0" stroke-width="0.3" rx="0.5"/>
<rect x="99" y="86" width="3.5" height="3.5" fill="none" stroke="#e2e8f0" stroke-width="0.3" rx="0.5"/>
<rect x="103.5" y="86" width="3.5" height="3.5" fill="none" stroke="#e2e8f0" stroke-width="0.3" rx="0.5"/>
<rect x="108" y="86" width="3.5" height="3.5" fill="none" stroke="#e2e8f0" stroke-width="0.3" rx="0.5"/>
<rect x="112.5" y="86" width="3.5" height="3.5" fill="none" stroke="#e2e8f0" stroke-width="0.3" rx="0.5"/>
<rect x="117" y="86" width="3.5" height="3.5" fill="none" stroke="#e2e8f0" stroke-width="0.3" rx="0.5"/>
<rect x="121.5" y="86" width="3.5" height="3.5" fill="none" stroke="#e2e8f0" stroke-width="0.3" rx="0.5"/>
<rect x="126" y="86" width="3.5" height="3.5" fill="none" stroke="#e2e8f0" stroke-width="0.3" rx="0.5"/>
<rect x="130.5" y="86" width="3.5" height="3.5" fill="none" stroke="#e2e8f0" stroke-width="0.3" rx="0.5"/>
<rect x="135" y="86" width="3.5" height="3.5" fill="none" stroke="#e2e8f0" stroke-width="0.3" rx="0.5"/>
<rect x="139.5" y="86" width="3.5" height="3.5" fill="none" stroke="#e2e8f0" stroke-width="0.3" rx="0.5"/>
<rect x="144" y="86" width="3.5" height="3.5" fill="none" stroke="#e2e8f0" stroke-width="0.3" rx="0.5"/>
<rect x="148.5" y="86" width="3.5" height="3.5" fill="none" stroke="#e2e8f0" stroke-width="0.3" rx="0.5"/>
<rect x="153" y="86" width="3.5" height="3.5" fill="none" stroke="#e2e8f0" stroke-width="0.3" rx="0.5"/>
<rect x="157.5" y="86" width="3.5" height="3.5" fill="none" stroke="#e2e8f0" stroke-width="0.3" rx="0.5"/>
<rect x="162" y="86" width="3.5" height="3.5" fill="none" stroke="#e2e8f0" stroke-width="0.3" rx="0.5"/>
<rect x="166.5" y="86" width="3.5" height="3.5" fill="none" stroke="#e2e8f0" stroke-width="0.3" rx="0.5"/>
<rect x="171" y="86" width="3.5" height="3.5" fill="none" stroke="#e2e8f0" stroke-width="0.3" rx="0.5"/>
<rect x="175.5" y="86" width="3.5" height="3.5" fill="none" stroke="#e2e8f0" stroke-width="0.3" rx="0.5"/>
<rect x="180" y="86" width="3.5" height="3.5" fill="none" stroke="#e2e8f0" stroke-width="0.3" rx="0.5"/>
<line x1="15" y1="274" x2="195" y2="274" stroke="#e2e8f0" stroke-width="0.3"/>
<text x="105" y="279" font-family="Inter, sans-serif" font-size="3.5" fill="#64748b" text-anchor="middle">Criado por Elizeu B. Abreu · www.elizeubarbosa.com.br · sofagospel.blogspot.com</text>
</svg>