<svg xmlns="http://www.w3.org/2000/svg" viewBox="0 0 210 297" width="210mm" height="297mm">
<rect x="0" y="0" width="210" height="297" fill="#f0f9ff"/>
<rect x="15" y="18" width="180" height="1.5" rx="0.75" fill="#14532d"/>
<text x="15" y="27" font-family="Inter, sans-serif" font-size="10" font-weight="700" fill="#14532d">Diário de Gratidão</text>
<text x="15" y="32" font-family="Inter, sans-serif" font-size="4" fill="#64748b">Bullet Journal</text>
<rect x="15" y="39" width="180" height="8" fill="white" stroke="#e2e8f0" stroke-width="0.3" rx="1.5"/>
<text x="18" y="43" font-family="Inter, sans-serif" font-size="3.5" font-weight="600" fill="#1a365d">📋 Agenda Diária</text>
<text x="18" y="54" font-family="Inter, sans-serif" font-size="2.5" font-weight="600" fill="#475569">06h</text>
<line x1="33" y1="53" x2="192" y2="53" stroke="#e2e8f0" stroke-width="0.3"/>
<text x="18" y="60" font-family="Inter, sans-serif" font-size="2.5" font-weight="600" fill="#475569">07h</text>
<line x1="33" y1="59" x2="192" y2="59" stroke="#e2e8f0" stroke-width="0.3"/>
<text x="18" y="66" font-family="Inter, sans-serif" font-size="2.5" font-weight="600" fill="#475569">08h</text>
<line x1="33" y1="65" x2="192" y2="65" stroke="#e2e8f0" stroke-width="0.3"/>
<text x="18" y="72" font-family="Inter, sans-serif" font-size="2.5" font-weight="600" fill="#475569">09h</text>
<line x1="33" y1="71" x2="192" y2="71" stroke="#e2e8f0" stroke-width="0.3"/>
<text x="18" y="78" font-family="Inter, sans-serif" font-size="2.5" font-weight="600" fill="#475569">10h</text>
<line x1="33" y1="77" x2="192" y2="77" stroke="#e2e8f0" stroke-width="0.3"/>
<text x="18" y="84" font-family="Inter, sans-serif" font-size="2.5" font-weight="600" fill="#475569">11h</text>
<line x1="33" y1="83" x2="192" y2="83" stroke="#e2e8f0" stroke-width="0.3"/>
<text x="18" y="90" font-family="Inter, sans-serif" font-size="2.5" font-weight="600" fill="#475569">12h</text>
<line x1="33" y1="89" x2="192" y2="89" stroke="#e2e8f0" stroke-width="0.3"/>
<text x="18" y="96" font-family="Inter, sans-serif" font-size="2.5" font-weight="600" fill="#475569">13h</text>
<line x1="33" y1="95" x2="192" y2="95" stroke="#e2e8f0" stroke-width="0.3"/>
<text x="18" y="102" font-family="Inter, sans-serif" font-size="2.5" font-weight="600" fill="#475569">14h</text>
<line x1="33" y1="101" x2="192" y2="101" stroke="#e2e8f0" stroke-width="0.3"/>
<text x="18" y="108" font-family="Inter, sans-serif" font-size="2.5" font-weight="600" fill="#475569">15h</text>
<line x1="33" y1="107" x2="192" y2="107" stroke="#e2e8f0" stroke-width="0.3"/>
<text x="18" y="114" font-family="Inter, sans-serif" font-size="2.5" font-weight="600" fill="#475569">16h</text>
<line x1="33" y1="113" x2="192" y2="113" stroke="#e2e8f0" stroke-width="0.3"/>
<text x="18" y="120" font-family="Inter, sans-serif" font-size="2.5" font-weight="600" fill="#475569">17h</text>
<line x1="33" y1="119" x2="192" y2="119" stroke="#e2e8f0" stroke-width="0.3"/>
<text x="18" y="126" font-family="Inter, sans-serif" font-size="2.5" font-weight="600" fill="#475569">18h</text>
<line x1="33" y1="125" x2="192" y2="125" stroke="#e2e8f0" stroke-width="0.3"/>
<text x="18" y="132" font-family="Inter, sans-serif" font-size="2.5" font-weight="600" fill="#475569">19h</text>
<line x1="33" y1="131" x2="192" y2="131" stroke="#e2e8f0" stroke-width="0.3"/>
<text x="18" y="138" font-family="Inter, sans-serif" font-size="2.5" font-weight="600" fill="#475569">20h</text>
<line x1="33" y1="137" x2="192" y2="137" stroke="#e2e8f0" stroke-width="0.3"/>
<text x="18" y="144" font-family="Inter, sans-serif" font-size="2.5" font-weight="600" fill="#475569">21h</text>
<line x1="33" y1="143" x2="192" y2="143" stroke="#e2e8f0" stroke-width="0.3"/>
<text x="18" y="150" font-family="Inter, sans-serif" font-size="2.5" font-weight="600" fill="#475569">22h</text>
<line x1="33" y1="149" x2="192" y2="149" stroke="#e2e8f0" stroke-width="0.3"/>
<line x1="15" y1="274" x2="195" y2="274" stroke="#e2e8f0" stroke-width="0.3"/>
<text x="105" y="279" font-family="Inter, sans-serif" font-size="3.5" fill="#64748b" text-anchor="middle">Criado por Elizeu B. Abreu · www.elizeubarbosa.com.br · sofagospel.blogspot.com</text>
</svg>