<svg xmlns="http://www.w3.org/2000/svg" viewBox="0 0 210 297" width="210mm" height="297mm">
<rect x="0" y="0" width="210" height="297" fill="#fdf2f8"/>
<rect x="15" y="18" width="180" height="1.5" rx="0.75" fill="#1e293b"/>
<text x="15" y="27" font-family="Inter, sans-serif" font-size="10" font-weight="700" fill="#1e293b">Inbox Zerado</text>
<text x="15" y="32" font-family="Inter, sans-serif" font-size="4" fill="#64748b">GTD Método</text>
<rect x="15" y="39" width="88.5" height="60" fill="white" stroke="#e2e8f0" stroke-width="0.3" rx="1.5"/>
<text x="18" y="43" font-family="Inter, sans-serif" font-size="3.5" font-weight="600" fill="#1a365d">📥 Captura Rápida</text>
<rect x="106.5" y="39" width="88.5" height="60" fill="white" stroke="#e2e8f0" stroke-width="0.3" rx="1.5"/>
<text x="109.5" y="43" font-family="Inter, sans-serif" font-size="3.5" font-weight="600" fill="#1a365d">📌 Pendências</text>
<rect x="15" y="103" width="180" height="50" fill="white" stroke="#e2e8f0" stroke-width="0.3" rx="1.5"/>
<text x="18" y="107" font-family="Inter, sans-serif" font-size="3.5" font-weight="600" fill="#1a365d">📋 Itens Coletados</text>
<rect x="18" y="109" width="43.5" height="5" fill="#1a365d" rx="0.5"/>
    <text x="39.75" y="112.5" font-size="2.8" fill="white" text-anchor="middle">Item</text><rect x="61.5" y="109" width="43.5" height="5" fill="#1a365d" rx="0.5"/>
    <text x="83.25" y="112.5" font-size="2.8" fill="white" text-anchor="middle">Contexto</text><rect x="105" y="109" width="43.5" height="5" fill="#1a365d" rx="0.5"/>
    <text x="126.75" y="112.5" font-size="2.8" fill="white" text-anchor="middle">Ação</text><rect x="148.5" y="109" width="43.5" height="5" fill="#1a365d" rx="0.5"/>
    <text x="170.25" y="112.5" font-size="2.8" fill="white" text-anchor="middle">Prioridade</text><rect x="18" y="114.3" width="174" height="6" fill="#f8fafc" rx="0.3"/><text x="39.75" y="118.3" font-size="2.5" fill="#1e293b" text-anchor="middle" dominant-baseline="central">Ideia 1</text><text x="83.25" y="118.3" font-size="2.5" fill="#1e293b" text-anchor="middle" dominant-baseline="central">Casa</text><text x="126.75" y="118.3" font-size="2.5" fill="#1e293b" text-anchor="middle" dominant-baseline="central">Fazer</text><text x="170.25" y="118.3" font-size="2.5" fill="#1e293b" text-anchor="middle" dominant-baseline="central">Alta</text><rect x="18" y="120.6" width="174" height="6" fill="#ffffff" rx="0.3"/><text x="39.75" y="124.6" font-size="2.5" fill="#1e293b" text-anchor="middle" dominant-baseline="central">Ideia 2</text><text x="83.25" y="124.6" font-size="2.5" fill="#1e293b" text-anchor="middle" dominant-baseline="central">Trabalho</text><text x="126.75" y="124.6" font-size="2.5" fill="#1e293b" text-anchor="middle" dominant-baseline="central">Delegar</text><text x="170.25" y="124.6" font-size="2.5" fill="#1e293b" text-anchor="middle" dominant-baseline="central">Média</text><rect x="18" y="126.89999999999999" width="174" height="6" fill="#f8fafc" rx="0.3"/><text x="39.75" y="130.89999999999998" font-size="2.5" fill="#1e293b" text-anchor="middle" dominant-baseline="central">Ideia 3</text><text x="83.25" y="130.89999999999998" font-size="2.5" fill="#1e293b" text-anchor="middle" dominant-baseline="central">Casa</text><text x="126.75" y="130.89999999999998" font-size="2.5" fill="#1e293b" text-anchor="middle" dominant-baseline="central">Fazer</text><text x="170.25" y="130.89999999999998" font-size="2.5" fill="#1e293b" text-anchor="middle" dominant-baseline="central">Alta</text><rect x="18" y="133.2" width="174" height="6" fill="#ffffff" rx="0.3"/><text x="39.75" y="137.2" font-size="2.5" fill="#1e293b" text-anchor="middle" dominant-baseline="central">Ideia 4</text><text x="83.25" y="137.2" font-size="2.5" fill="#1e293b" text-anchor="middle" dominant-baseline="central">Trabalho</text><text x="126.75" y="137.2" font-size="2.5" fill="#1e293b" text-anchor="middle" dominant-baseline="central">Delegar</text><text x="170.25" y="137.2" font-size="2.5" fill="#1e293b" text-anchor="middle" dominant-baseline="central">Média</text><rect x="18" y="139.5" width="174" height="6" fill="#f8fafc" rx="0.3"/><text x="39.75" y="143.5" font-size="2.5" fill="#1e293b" text-anchor="middle" dominant-baseline="central">Ideia 5</text><text x="83.25" y="143.5" font-size="2.5" fill="#1e293b" text-anchor="middle" dominant-baseline="central">Casa</text><text x="126.75" y="143.5" font-size="2.5" fill="#1e293b" text-anchor="middle" dominant-baseline="central">Fazer</text><text x="170.25" y="143.5" font-size="2.5" fill="#1e293b" text-anchor="middle" dominant-baseline="central">Alta</text>
<line x1="15" y1="274" x2="195" y2="274" stroke="#e2e8f0" stroke-width="0.3"/>
<text x="105" y="279" font-family="Inter, sans-serif" font-size="3.5" fill="#64748b" text-anchor="middle">Criado por Elizeu B. Abreu · www.elizeubarbosa.com.br · sofagospel.blogspot.com</text>
</svg>