<svg xmlns="http://www.w3.org/2000/svg" viewBox="0 0 210 297" width="210mm" height="297mm">
<rect x="0" y="0" width="210" height="297" fill="#ffffff"/>
<rect x="15" y="18" width="180" height="1.5" rx="0.75" fill="#14532d"/>
<text x="15" y="27" font-family="Inter, sans-serif" font-size="10" font-weight="700" fill="#14532d">Controle de Peso</text>
<text x="15" y="32" font-family="Inter, sans-serif" font-size="4" fill="#64748b">Saúde</text>
<rect x="15" y="39" width="180" height="8" fill="white" stroke="#e2e8f0" stroke-width="0.3" rx="1.5"/>
<text x="18" y="43" font-family="Inter, sans-serif" font-size="3.5" font-weight="600" fill="#1a365d">📋 Anotações</text>
<rect x="18" y="51" width="174" height="108" fill="white" stroke="#e2e8f0" stroke-width="0.3" rx="1.5"/>
<line x1="23" y1="57" x2="187" y2="57" stroke="#f1f5f9" stroke-width="0.3"/>
<line x1="23" y1="65" x2="187" y2="65" stroke="#f1f5f9" stroke-width="0.3"/>
<line x1="23" y1="73" x2="187" y2="73" stroke="#f1f5f9" stroke-width="0.3"/>
<line x1="23" y1="81" x2="187" y2="81" stroke="#f1f5f9" stroke-width="0.3"/>
<line x1="23" y1="89" x2="187" y2="89" stroke="#f1f5f9" stroke-width="0.3"/>
<line x1="23" y1="97" x2="187" y2="97" stroke="#f1f5f9" stroke-width="0.3"/>
<line x1="23" y1="105" x2="187" y2="105" stroke="#f1f5f9" stroke-width="0.3"/>
<line x1="23" y1="113" x2="187" y2="113" stroke="#f1f5f9" stroke-width="0.3"/>
<line x1="23" y1="121" x2="187" y2="121" stroke="#f1f5f9" stroke-width="0.3"/>
<line x1="23" y1="129" x2="187" y2="129" stroke="#f1f5f9" stroke-width="0.3"/>
<line x1="23" y1="137" x2="187" y2="137" stroke="#f1f5f9" stroke-width="0.3"/>
<line x1="23" y1="145" x2="187" y2="145" stroke="#f1f5f9" stroke-width="0.3"/>
<line x1="15" y1="274" x2="195" y2="274" stroke="#e2e8f0" stroke-width="0.3"/>
<text x="105" y="279" font-family="Inter, sans-serif" font-size="3.5" fill="#64748b" text-anchor="middle">Criado por Elizeu B. Abreu · www.elizeubarbosa.com.br · sofagospel.blogspot.com</text>
</svg>