<svg xmlns="http://www.w3.org/2000/svg" viewBox="0 0 210 297" width="210mm" height="297mm">
<rect x="0" y="0" width="210" height="297" fill="#fdf2f8"/>
<rect x="15" y="18" width="180" height="1.5" rx="0.75" fill="#1a365d"/>
<text x="15" y="27" font-family="Inter, sans-serif" font-size="10" font-weight="700" fill="#1a365d">Checklist de Estudos</text>
<text x="15" y="32" font-family="Inter, sans-serif" font-size="4" fill="#64748b">Estudos</text>
<rect x="15" y="39" width="180" height="20" fill="white" stroke="#e2e8f0" stroke-width="0.3" rx="1.5"/>
<text x="18" y="43" font-family="Inter, sans-serif" font-size="3.5" font-weight="600" fill="#1a365d">✅ Checklist</text>
<rect x="18" y="63" width="3" height="3" fill="none" stroke="#e2e8f0" stroke-width="0.4" rx="0.5"/>
    <text x="22.5" y="65" font-size="2.5" fill="#1e293b">Definir objetivos claros</text>
<rect x="18" y="68" width="3" height="3" fill="none" stroke="#e2e8f0" stroke-width="0.4" rx="0.5"/>
    <text x="22.5" y="70" font-size="2.5" fill="#1e293b">Listar recursos</text>
<rect x="18" y="73" width="3" height="3" fill="none" stroke="#e2e8f0" stroke-width="0.4" rx="0.5"/>
    <text x="22.5" y="75" font-size="2.5" fill="#1e293b">Estabelecer prazos</text>
<rect x="18" y="78" width="3" height="3" fill="none" stroke="#e2e8f0" stroke-width="0.4" rx="0.5"/>
    <text x="22.5" y="80" font-size="2.5" fill="#1e293b">Identificar stakeholders</text>
<rect x="18" y="83" width="3" height="3" fill="none" stroke="#e2e8f0" stroke-width="0.4" rx="0.5"/>
    <text x="22.5" y="85" font-size="2.5" fill="#1e293b">Criar cronograma</text>
<rect x="18" y="88" width="3" height="3" fill="none" stroke="#e2e8f0" stroke-width="0.4" rx="0.5"/>
    <text x="22.5" y="90" font-size="2.5" fill="#1e293b">Definir métricas</text>
<rect x="18" y="93" width="3" height="3" fill="none" stroke="#e2e8f0" stroke-width="0.4" rx="0.5"/>
    <text x="22.5" y="95" font-size="2.5" fill="#1e293b">Alocar responsáveis</text>
<rect x="18" y="98" width="3" height="3" fill="none" stroke="#e2e8f0" stroke-width="0.4" rx="0.5"/>
    <text x="22.5" y="100" font-size="2.5" fill="#1e293b">Preparar documentação</text>
<rect x="18" y="103" width="3" height="3" fill="none" stroke="#e2e8f0" stroke-width="0.4" rx="0.5"/>
    <text x="22.5" y="105" font-size="2.5" fill="#1e293b">Revisar entregáveis</text>
<line x1="15" y1="274" x2="195" y2="274" stroke="#e2e8f0" stroke-width="0.3"/>
<text x="105" y="279" font-family="Inter, sans-serif" font-size="3.5" fill="#64748b" text-anchor="middle">Criado por Elizeu B. Abreu · www.elizeubarbosa.com.br · sofagospel.blogspot.com</text>
</svg>